<svg xmlns="http://www.w3.org/2000/svg" xmlns:xlink="http://www.w3.org/1999/xlink" viewBox="0,0,256,256" width="512px" height="512px" fill-rule="nonzero"><g fill="#ec3e3e" fill-rule="nonzero" stroke="none" stroke-width="1" stroke-linecap="butt" stroke-linejoin="miter" stroke-miterlimit="10" stroke-dasharray="" stroke-dashoffset="0" font-family="none" font-weight="none" font-size="none" text-anchor="none" style="mix-blend-mode: normal"><g transform="scale(0.5,0.5)"><path d="M316.13477,28.36914c-8.80108,0.13902 -17.20396,3.69164 -23.43555,9.9082l-254.23242,255.16407c-13.16909,13.25863 -13.14902,34.66648 0.04492,47.90039l11.82031,11.82226c28.61769,-19.7774 67.28106,-16.27545 91.87948,8.32201c24.59843,24.59747 28.10188,63.26069 8.3256,91.87916l20.35351,20.35352c13.24898,13.21739 34.69634,13.21739 47.94532,0l254.65234,-254.65039c6.35854,-6.35762 9.93082,-14.98097 9.93082,-23.97266c0,-8.99169 -3.57227,-17.61503 -9.93082,-23.97266l-16.74023,-16.73828c-28.36322,15.96236 -63.88519,11.08683 -86.89876,-11.92718c-23.01356,-23.01402 -27.88839,-58.53609 -11.92546,-86.89899l-17.28125,-17.28125c-6.49462,-6.47896 -15.33524,-10.05312 -24.50781,-9.9082zM279.7832,88.36328c1.82115,0.0269 3.56011,0.76256 4.84766,2.05078l136.66992,136.66602c1.31303,1.31279 2.0507,3.09346 2.0507,4.9502c0,1.85673 -0.73767,3.6374 -2.0507,4.95019l-184.55469,184.55078c-2.73355,2.73296 -7.16488,2.73296 -9.89843,0l-136.66797,-136.66602c-1.31303,-1.31279 -2.0507,-3.09346 -2.0507,-4.9502c0,-1.85673 0.73767,-3.6374 2.0507,-4.9502l184.55078,-184.55078c1.33779,-1.33848 3.16052,-2.07828 5.05273,-2.05078zM279.68164,105.26367l-134.60156,134.59961l126.76953,126.76758l134.59961,-134.60156zM250.92969,185.13672c1.46954,0.0239 2.89428,0.50975 4.07226,1.38867l24.27344,18.11523l28.68555,-9.72851c2.52471,-0.85344 5.31502,-0.19922 7.19726,1.6875c1.88548,1.8847 2.53674,4.67677 1.67969,7.20117l-9.72656,28.6836l18.11328,24.27539c1.59308,2.13517 1.83611,4.98951 0.62695,7.36328c-1.19491,2.38768 -3.6567,3.87509 -6.32617,3.82226l-30.28516,-0.38672l-17.48828,24.72852c-1.31177,1.85542 -3.44254,2.95867 -5.71484,2.95898c-0.36821,-0.00017 -0.73585,-0.0289 -1.09961,-0.08593c-2.63233,-0.41701 -4.79947,-2.29263 -5.58984,-4.83789l-8.99024,-28.92188l-28.91992,-9c-2.54486,-0.79053 -4.42013,-2.95743 -4.83717,-5.58941c-0.41704,-2.63198 0.6965,-5.27246 2.87233,-6.81098l24.73046,-17.48828l-0.38671,-30.28516c-0.02453,-1.89184 0.71779,-3.71304 2.05784,-5.04868c1.34005,-1.33563 3.16369,-2.07194 5.05544,-2.04116zM258,206.23047l0.25391,19.7832c0.02784,2.30259 -1.07857,4.47159 -2.95899,5.80078l-16.1543,11.42383l18.89454,5.87305c2.1998,0.68437 3.92202,2.40733 4.60546,4.60742l5.87305,18.89258l11.42383,-16.15625c1.33481,-1.87366 3.50036,-2.97758 5.80078,-2.95703l19.7832,0.2539l-11.83203,-15.85156c-1.37772,-1.84614 -1.75897,-4.25194 -1.01953,-6.43359l6.35352,-18.73828l-18.73633,6.35351c-2.18165,0.73944 -4.58745,0.35819 -6.43359,-1.01953zM135.18164,249.76172l-30.15234,30.1543l126.76758,126.76757l30.15234,-30.15234z"></path></g></g><g fill="#3a3f57" fill-rule="nonzero" stroke="none" stroke-width="1" stroke-linecap="butt" stroke-linejoin="miter" stroke-miterlimit="10" stroke-dasharray="" stroke-dashoffset="0" font-family="none" font-weight="none" font-size="none" text-anchor="none" style="mix-blend-mode: normal"><g><path d="M32.365,131.82l1.61,6.44c-1.22667,0.88667 -2.79,1.52 -4.69,1.9c-1.9,0.38 -3.84667,0.57 -5.84,0.57v0c-2.41333,0 -4.70333,-0.37333 -6.87,-1.12c-2.16667,-0.74667 -4.07333,-1.95333 -5.72,-3.62c-1.64667,-1.66667 -2.96,-3.83333 -3.94,-6.5c-0.97333,-2.66 -1.46,-5.88667 -1.46,-9.68v0c0,-3.95333 0.54333,-7.26 1.63,-9.92c1.09333,-2.66667 2.51333,-4.81333 4.26,-6.44c1.74667,-1.63333 3.69333,-2.80333 5.84,-3.51c2.14667,-0.70667 4.29333,-1.06 6.44,-1.06v0c2.29333,0 4.23667,0.15333 5.83,0.46c1.59333,0.3 2.90667,0.66333 3.94,1.09v0l-1.55,6.67c-0.88,-0.42667 -1.92667,-0.73333 -3.14,-0.92c-1.20667,-0.19333 -2.67,-0.29 -4.39,-0.29v0c-3.18667,0 -5.74667,1.13 -7.68,3.39c-1.94,2.26 -2.91,5.77 -2.91,10.53v0c0,2.06667 0.23333,3.95333 0.7,5.66c0.46,1.70667 1.15667,3.16333 2.09,4.37c0.94,1.20667 2.11,2.14667 3.51,2.82c1.4,0.66667 3.02,1 4.86,1v0c1.72667,0 3.18333,-0.17 4.37,-0.51c1.18667,-0.34667 2.22333,-0.79 3.11,-1.33zM39.315,139.93v-28.75h7.48v28.75zM38.225,103.07v0c0,-1.10667 0.41333,-2.05333 1.24,-2.84c0.82,-0.78667 1.96,-1.18 3.42,-1.18v0c1.45333,0 2.63,0.39333 3.53,1.18c0.9,0.78667 1.35,1.73333 1.35,2.84v0c0,1.11333 -0.45,2.04333 -1.35,2.79c-0.9,0.74667 -2.07667,1.12 -3.53,1.12v0c-1.46,0 -2.6,-0.37333 -3.42,-1.12c-0.82667,-0.74667 -1.24,-1.67667 -1.24,-2.79zM79.225,139.93h-7.48v-16.33c0,-2.34 -0.33333,-4.02667 -1,-5.06c-0.67333,-1.03333 -1.81333,-1.55 -3.42,-1.55v0c-1.42,0 -2.62,0.41 -3.6,1.23c-0.98,0.82667 -1.68,1.85333 -2.1,3.08v0v18.63h-7.47v-28.75h5.92l0.86,3.8h0.23c0.88667,-1.23333 2.05667,-2.31 3.51,-3.23c1.45333,-0.91333 3.33333,-1.37 5.64,-1.37v0c1.41333,0 2.67667,0.19 3.79,0.57c1.11333,0.38 2.05333,1.01333 2.82,1.9c0.76667,0.88 1.34,2.07667 1.72,3.59c0.38667,1.51333 0.58,3.38333 0.58,5.61v0zM106.015,132.57l2.48,4.89c-1.15333,0.92 -2.71667,1.69667 -4.69,2.33c-1.97333,0.62667 -4.07333,0.94 -6.3,0.94v0c-4.63333,0 -8.02333,-1.35 -10.17,-4.05c-2.15333,-2.7 -3.23,-6.40667 -3.23,-11.12v0c0,-5.06667 1.21,-8.86333 3.63,-11.39c2.41333,-2.52667 5.80667,-3.79 10.18,-3.79v0c1.45333,0 2.87,0.19 4.25,0.57c1.38,0.38 2.60667,1.01333 3.68,1.9c1.07333,0.88 1.93667,2.06667 2.59,3.56c0.65333,1.49333 0.98,3.35333 0.98,5.58v0c0,0.80667 -0.05,1.67 -0.15,2.59c-0.09333,0.92 -0.23667,1.87667 -0.43,2.87v0h-17.25c0.11333,2.41333 0.73667,4.23333 1.87,5.46c1.13333,1.23333 2.96333,1.85 5.49,1.85v0c1.57333,0 2.98333,-0.24 4.23,-0.72c1.24667,-0.48 2.19333,-0.97 2.84,-1.47zM97.795,116.35v0c-1.95333,0 -3.4,0.58667 -4.34,1.76c-0.94,1.16667 -1.50667,2.72667 -1.7,4.68v0h10.7c0.15333,-2.06667 -0.16333,-3.65667 -0.95,-4.77c-0.78667,-1.11333 -2.02333,-1.67 -3.71,-1.67zM138.735,112.22v27.71c0,4.18 -1.13,7.25667 -3.39,9.23c-2.26,1.97333 -5.42333,2.96 -9.49,2.96v0c-2.76,0 -4.93667,-0.19333 -6.53,-0.58c-1.58667,-0.38 -2.78333,-0.78 -3.59,-1.2v0l1.55,-5.93c0.88,0.34667 1.90667,0.69333 3.08,1.04c1.16667,0.34667 2.61333,0.52 4.34,0.52v0c2.60667,0 4.38,-0.56667 5.32,-1.7c0.94,-1.12667 1.41,-2.70667 1.41,-4.74v0v-1.84h-0.23c-1.34,1.8 -3.71667,2.7 -7.13,2.7v0c-3.72,0 -6.49,-1.15 -8.31,-3.45c-1.82,-2.3 -2.73,-5.90333 -2.73,-10.81v0c0,-5.14 1.22667,-9.03 3.68,-11.67c2.45333,-2.64667 6.01667,-3.97 10.69,-3.97v0c2.45333,0 4.65,0.17333 6.59,0.52c1.93333,0.34 3.51333,0.74333 4.74,1.21zM126.085,134.41v0c1.46,0 2.58,-0.32667 3.36,-0.98c0.78667,-0.65333 1.39333,-1.63 1.82,-2.93v0v-12.94c-1.19333,-0.5 -2.67,-0.75 -4.43,-0.75v0c-1.92,0 -3.41667,0.72 -4.49,2.16c-1.07333,1.44 -1.61,3.73 -1.61,6.87v0c0,2.8 0.46,4.93 1.38,6.39c0.92,1.45333 2.24333,2.18 3.97,2.18zM144.945,111.18h7.48v16.33c0,2.34 0.27667,4.02667 0.83,5.06c0.55333,1.03333 1.63667,1.55 3.25,1.55v0c1.42,0 2.59667,-0.42 3.53,-1.26c0.94,-0.84667 1.64,-1.88333 2.1,-3.11v0v-18.57h7.48v20.01c0,1.57333 0.07667,3.11667 0.23,4.63c0.15333,1.51333 0.38333,2.88333 0.69,4.11v0h-5.64l-1.32,-4.26h-0.23c-0.88,1.46 -2.10667,2.67 -3.68,3.63c-1.57333,0.95333 -3.43333,1.43 -5.58,1.43v0c-1.45333,0 -2.75667,-0.19 -3.91,-0.57c-1.14667,-0.38 -2.10333,-1.01333 -2.87,-1.9c-0.76667,-0.88 -1.35333,-2.06667 -1.76,-3.56c-0.4,-1.5 -0.6,-3.38 -0.6,-5.64v0zM176.795,139.93v-28.75h7.48v28.75zM175.705,103.07v0c0,-1.10667 0.41333,-2.05333 1.24,-2.84c0.82,-0.78667 1.96,-1.18 3.42,-1.18v0c1.45333,0 2.63333,0.39333 3.54,1.18c0.9,0.78667 1.35,1.73333 1.35,2.84v0c0,1.11333 -0.45,2.04333 -1.35,2.79c-0.90667,0.74667 -2.08667,1.12 -3.54,1.12v0c-1.46,0 -2.6,-0.37333 -3.42,-1.12c-0.82667,-0.74667 -1.24,-1.67667 -1.24,-2.79zM216.075,99.68v30.13c0,1.61333 0.02,3.22333 0.06,4.83c0.03333,1.61333 0.20333,3.39667 0.51,5.35v0h-5.35l-1.03,-3.74h-0.23c-0.76667,1.34 -1.87,2.42333 -3.31,3.25c-1.43333,0.82 -3.12667,1.23 -5.08,1.23v0c-3.60667,0 -6.40667,-1.18667 -8.4,-3.56c-1.99333,-2.38 -2.99,-6.09667 -2.99,-11.15v0c0,-4.91333 1.11,-8.73 3.33,-11.45c2.22667,-2.72 5.48667,-4.08 9.78,-4.08v0c1.18667,0 2.16333,0.06667 2.93,0.2c0.76667,0.13333 1.53333,0.35333 2.3,0.66v0v-11.67zM203.365,134.41v0c1.45333,0 2.60333,-0.35333 3.45,-1.06c0.84,-0.71333 1.43333,-1.74 1.78,-3.08v0v-12.19c-0.53333,-0.42 -1.12667,-0.73667 -1.78,-0.95c-0.65333,-0.21333 -1.49667,-0.32 -2.53,-0.32v0c-2.10667,0 -3.68667,0.71 -4.74,2.13c-1.06,1.42 -1.59,3.85333 -1.59,7.3v0c0,2.45333 0.43333,4.43 1.3,5.93c0.86,1.49333 2.23,2.24 4.11,2.24zM243.155,132.57l2.47,4.89c-1.14667,0.92 -2.70667,1.69667 -4.68,2.33c-1.97333,0.62667 -4.07333,0.94 -6.3,0.94v0c-4.64,0 -8.03333,-1.35 -10.18,-4.05c-2.14667,-2.7 -3.22,-6.40667 -3.22,-11.12v0c0,-5.06667 1.21,-8.86333 3.63,-11.39c2.41333,-2.52667 5.80333,-3.79 10.17,-3.79v0c1.46,0 2.88,0.19 4.26,0.57c1.38,0.38 2.60667,1.01333 3.68,1.9c1.07333,0.88 1.93667,2.06667 2.59,3.56c0.64667,1.49333 0.97,3.35333 0.97,5.58v0c0,0.80667 -0.04667,1.67 -0.14,2.59c-0.09333,0.92 -0.23667,1.87667 -0.43,2.87v0h-17.25c0.11333,2.41333 0.73667,4.23333 1.87,5.46c1.12667,1.23333 2.95667,1.85 5.49,1.85v0c1.57333,0 2.98,-0.24 4.22,-0.72c1.24667,-0.48 2.19667,-0.97 2.85,-1.47zM234.935,116.35v0c-1.95333,0 -3.4,0.58667 -4.34,1.76c-0.94,1.16667 -1.50667,2.72667 -1.7,4.68v0h10.7c0.15333,-2.06667 -0.16333,-3.65667 -0.95,-4.77c-0.78667,-1.11333 -2.02333,-1.67 -3.71,-1.67z"></path></g></g></svg>